# xmcd CD database file
#
# Track frame offsets:
#	150
#	18607
#	37047
#	59472
#
# Disc length: 1089 seconds
#
# Revision: 1
# Processed by: cddbd v1.5.2PL0 Copyright (c) Steve Scherf et al.
# Submitted via: CDex 1.70beta3
#
DISCID=32043f04
DTITLE=金子恵実 - パープル・レインに濡れながら
DYEAR=1991
DGENRE=Country
TTITLE0=パープル・レインに濡れながら
TTITLE1=パープル・レインに濡れながら（カラオケ）
TTITLE2=ペパーミント・ドール
TTITLE3=ペパーミント・ドール（カラオケ）
EXTD=YEAR: 1991
EXTT0=
EXTT1=
EXTT2=
EXTT3=
PLAYORDER=
